<mxfile host="app.diagrams.net" modified="2023-04-20T16:31:51.996Z" agent="Mozilla/5.0 (Windows NT 10.0; Win64; x64; rv:109.0) Gecko/20100101 Firefox/111.0" etag="cZZ1Ch81zLwXR6QZzvbJ" version="21.2.1">
  <diagram name="Страница 1" id="jCknfAy2eIx-rB4JYGrV">
    <mxGraphModel dx="1194" dy="752" grid="1" gridSize="10" guides="1" tooltips="1" connect="1" arrows="1" fold="1" page="1" pageScale="1" pageWidth="827" pageHeight="1169" math="0" shadow="0">
      <root>
        <mxCell id="0" />
        <object label="Storage" id="fnM_mYiMqZ8jmOyI0Xx2-20">
          <mxCell parent="0" />
        </object>
        <mxCell id="fnM_mYiMqZ8jmOyI0Xx2-21" value="" style="rounded=1;whiteSpace=wrap;html=1;fillColor=#f5f5f5;strokeColor=#666666;fontColor=#333333;gradientColor=#D4D4D4;gradientDirection=west;shadow=1;glass=0;" vertex="1" parent="fnM_mYiMqZ8jmOyI0Xx2-20">
          <mxGeometry x="80" y="69" width="980" height="311" as="geometry" />
        </mxCell>
        <mxCell id="fnM_mYiMqZ8jmOyI0Xx2-25" value="Local Storage" style="strokeColor=#666666;shadow=1;strokeWidth=1;rounded=1;absoluteArcSize=1;arcSize=2;labelPosition=center;verticalLabelPosition=middle;align=center;verticalAlign=bottom;spacingLeft=0;fontColor=#333333;fontSize=12;whiteSpace=wrap;spacingBottom=2;html=1;fillColor=#f5f5f5;" vertex="1" parent="fnM_mYiMqZ8jmOyI0Xx2-20">
          <mxGeometry x="570" y="280" width="100" height="80" as="geometry" />
        </mxCell>
        <mxCell id="fnM_mYiMqZ8jmOyI0Xx2-26" value="" style="sketch=0;dashed=0;connectable=0;html=1;fillColor=#757575;strokeColor=none;shape=mxgraph.gcp2.storage;part=1;" vertex="1" parent="fnM_mYiMqZ8jmOyI0Xx2-25">
          <mxGeometry x="0.5" width="50" height="40" relative="1" as="geometry">
            <mxPoint x="-25" y="15" as="offset" />
          </mxGeometry>
        </mxCell>
        <object label="Tools" id="1">
          <mxCell parent="0" />
        </object>
        <mxCell id="aMgATv3_q4s31sS9nj5F-20" value="Python" style="rounded=1;whiteSpace=wrap;html=1;fillColor=#fff2cc;strokeColor=#d6b656;fontStyle=1;fontSize=14;verticalAlign=middle;" parent="1" vertex="1">
          <mxGeometry x="220" y="234" width="810" height="40" as="geometry" />
        </mxCell>
        <mxCell id="aMgATv3_q4s31sS9nj5F-24" style="edgeStyle=orthogonalEdgeStyle;rounded=0;orthogonalLoop=1;jettySize=auto;html=1;exitX=1;exitY=0.5;exitDx=0;exitDy=0;entryX=0;entryY=0.5;entryDx=0;entryDy=0;" parent="1" target="aMgATv3_q4s31sS9nj5F-8" edge="1">
          <mxGeometry relative="1" as="geometry">
            <mxPoint x="350" y="205" as="sourcePoint" />
          </mxGeometry>
        </mxCell>
        <mxCell id="aMgATv3_q4s31sS9nj5F-22" style="edgeStyle=orthogonalEdgeStyle;rounded=0;orthogonalLoop=1;jettySize=auto;html=1;exitX=1;exitY=0.5;exitDx=0;exitDy=0;entryX=0;entryY=0.5;entryDx=0;entryDy=0;" parent="1" target="aMgATv3_q4s31sS9nj5F-10" edge="1">
          <mxGeometry relative="1" as="geometry">
            <mxPoint x="482" y="205" as="sourcePoint" />
          </mxGeometry>
        </mxCell>
        <mxCell id="aMgATv3_q4s31sS9nj5F-21" style="edgeStyle=orthogonalEdgeStyle;rounded=0;orthogonalLoop=1;jettySize=auto;html=1;exitX=0;exitY=0;exitDx=80;exitDy=63;exitPerimeter=0;" parent="1" source="aMgATv3_q4s31sS9nj5F-19" edge="1">
          <mxGeometry relative="1" as="geometry">
            <mxPoint x="250" y="205" as="targetPoint" />
          </mxGeometry>
        </mxCell>
        <mxCell id="aMgATv3_q4s31sS9nj5F-25" style="edgeStyle=orthogonalEdgeStyle;rounded=0;orthogonalLoop=1;jettySize=auto;html=1;exitX=1;exitY=0.5;exitDx=0;exitDy=0;entryX=0;entryY=0.5;entryDx=0;entryDy=0;" parent="1" target="aMgATv3_q4s31sS9nj5F-9" edge="1">
          <mxGeometry relative="1" as="geometry">
            <mxPoint x="647" y="205" as="sourcePoint" />
          </mxGeometry>
        </mxCell>
        <mxCell id="aMgATv3_q4s31sS9nj5F-23" style="edgeStyle=orthogonalEdgeStyle;rounded=0;orthogonalLoop=1;jettySize=auto;html=1;exitX=1;exitY=0.5;exitDx=0;exitDy=0;entryX=0;entryY=0.5;entryDx=0;entryDy=0;" parent="1" target="aMgATv3_q4s31sS9nj5F-11" edge="1">
          <mxGeometry relative="1" as="geometry">
            <mxPoint x="790" y="205" as="sourcePoint" />
          </mxGeometry>
        </mxCell>
        <object label="ETL" id="fnM_mYiMqZ8jmOyI0Xx2-1">
          <mxCell parent="0" />
        </object>
        <mxCell id="fnM_mYiMqZ8jmOyI0Xx2-3" value="" style="rounded=1;whiteSpace=wrap;html=1;fillColor=#dae8fc;strokeColor=#6c8ebf;" vertex="1" parent="fnM_mYiMqZ8jmOyI0Xx2-1">
          <mxGeometry x="220" y="80" width="280" height="160" as="geometry" />
        </mxCell>
        <mxCell id="fnM_mYiMqZ8jmOyI0Xx2-2" value="" style="rounded=1;whiteSpace=wrap;html=1;fillColor=#d5e8d4;strokeColor=#82b366;" vertex="1" parent="fnM_mYiMqZ8jmOyI0Xx2-1">
          <mxGeometry x="510" y="80" width="290" height="160" as="geometry" />
        </mxCell>
        <mxCell id="fnM_mYiMqZ8jmOyI0Xx2-4" value="" style="rounded=1;whiteSpace=wrap;html=1;fillColor=#ffe6cc;strokeColor=#d79b00;" vertex="1" parent="fnM_mYiMqZ8jmOyI0Xx2-1">
          <mxGeometry x="810" y="80" width="220" height="160" as="geometry" />
        </mxCell>
        <mxCell id="fnM_mYiMqZ8jmOyI0Xx2-5" value="Extract" style="text;html=1;strokeColor=none;fillColor=none;align=center;verticalAlign=middle;whiteSpace=wrap;rounded=0;fontSize=20;" vertex="1" parent="fnM_mYiMqZ8jmOyI0Xx2-1">
          <mxGeometry x="325" y="90" width="60" height="30" as="geometry" />
        </mxCell>
        <mxCell id="fnM_mYiMqZ8jmOyI0Xx2-6" value="Load" style="text;html=1;strokeColor=none;fillColor=none;align=center;verticalAlign=middle;whiteSpace=wrap;rounded=0;fontSize=20;" vertex="1" parent="fnM_mYiMqZ8jmOyI0Xx2-1">
          <mxGeometry x="860" y="90" width="110" height="30" as="geometry" />
        </mxCell>
        <mxCell id="fnM_mYiMqZ8jmOyI0Xx2-7" value="Transform" style="text;html=1;strokeColor=none;fillColor=none;align=center;verticalAlign=middle;whiteSpace=wrap;rounded=0;fontSize=20;" vertex="1" parent="fnM_mYiMqZ8jmOyI0Xx2-1">
          <mxGeometry x="600" y="90" width="110" height="30" as="geometry" />
        </mxCell>
        <object label="Func" id="fnM_mYiMqZ8jmOyI0Xx2-8">
          <mxCell parent="0" />
        </object>
        <mxCell id="fnM_mYiMqZ8jmOyI0Xx2-16" style="edgeStyle=orthogonalEdgeStyle;rounded=0;orthogonalLoop=1;jettySize=auto;html=1;exitX=1;exitY=0.5;exitDx=0;exitDy=0;entryX=0;entryY=0.5;entryDx=0;entryDy=0;flowAnimation=1;" edge="1" parent="fnM_mYiMqZ8jmOyI0Xx2-8" source="fnM_mYiMqZ8jmOyI0Xx2-9" target="fnM_mYiMqZ8jmOyI0Xx2-10">
          <mxGeometry relative="1" as="geometry" />
        </mxCell>
        <mxCell id="fnM_mYiMqZ8jmOyI0Xx2-9" value="load_data" style="shape=step;perimeter=stepPerimeter;whiteSpace=wrap;html=1;fixedSize=1;fontStyle=1;fontSize=16;fontColor=#ffffff;fillColor=#1ba1e2;strokeColor=#006EAF;" vertex="1" parent="fnM_mYiMqZ8jmOyI0Xx2-8">
          <mxGeometry x="230" y="190" width="120" height="30" as="geometry" />
        </mxCell>
        <mxCell id="fnM_mYiMqZ8jmOyI0Xx2-17" style="edgeStyle=orthogonalEdgeStyle;rounded=0;orthogonalLoop=1;jettySize=auto;html=1;exitX=1;exitY=0.5;exitDx=0;exitDy=0;entryX=0;entryY=0.5;entryDx=0;entryDy=0;flowAnimation=1;" edge="1" parent="fnM_mYiMqZ8jmOyI0Xx2-8" source="fnM_mYiMqZ8jmOyI0Xx2-10" target="fnM_mYiMqZ8jmOyI0Xx2-12">
          <mxGeometry relative="1" as="geometry" />
        </mxCell>
        <mxCell id="fnM_mYiMqZ8jmOyI0Xx2-10" value="extract_data" style="shape=step;perimeter=stepPerimeter;whiteSpace=wrap;html=1;fixedSize=1;fontSize=16;fillColor=#1ba1e2;strokeColor=#006EAF;fontColor=#ffffff;fontStyle=1;" vertex="1" parent="fnM_mYiMqZ8jmOyI0Xx2-8">
          <mxGeometry x="350" y="190" width="140" height="30" as="geometry" />
        </mxCell>
        <mxCell id="fnM_mYiMqZ8jmOyI0Xx2-15" style="edgeStyle=orthogonalEdgeStyle;rounded=0;orthogonalLoop=1;jettySize=auto;html=1;exitX=0;exitY=0;exitDx=80;exitDy=63;exitPerimeter=0;entryX=0;entryY=0.5;entryDx=0;entryDy=0;flowAnimation=1;" edge="1" parent="fnM_mYiMqZ8jmOyI0Xx2-8" source="fnM_mYiMqZ8jmOyI0Xx2-11" target="fnM_mYiMqZ8jmOyI0Xx2-9">
          <mxGeometry relative="1" as="geometry" />
        </mxCell>
        <mxCell id="fnM_mYiMqZ8jmOyI0Xx2-11" value="&lt;font style=&quot;font-size: 17px;&quot;&gt;*.CSV&lt;/font&gt;" style="shape=note;whiteSpace=wrap;html=1;backgroundOutline=1;darkOpacity=0.05;fillColor=#dae8fc;strokeColor=#6c8ebf;size=26;" vertex="1" parent="fnM_mYiMqZ8jmOyI0Xx2-8">
          <mxGeometry x="100" y="110" width="80" height="100" as="geometry" />
        </mxCell>
        <mxCell id="fnM_mYiMqZ8jmOyI0Xx2-18" style="edgeStyle=orthogonalEdgeStyle;rounded=0;orthogonalLoop=1;jettySize=auto;html=1;exitX=1;exitY=0.5;exitDx=0;exitDy=0;entryX=0;entryY=0.5;entryDx=0;entryDy=0;flowAnimation=1;" edge="1" parent="fnM_mYiMqZ8jmOyI0Xx2-8" source="fnM_mYiMqZ8jmOyI0Xx2-12" target="fnM_mYiMqZ8jmOyI0Xx2-13">
          <mxGeometry relative="1" as="geometry" />
        </mxCell>
        <mxCell id="fnM_mYiMqZ8jmOyI0Xx2-12" value="filter_data" style="shape=step;perimeter=stepPerimeter;whiteSpace=wrap;html=1;fixedSize=1;fillColor=#60a917;fontColor=#ffffff;strokeColor=#2D7600;fontSize=16;fontStyle=1;" vertex="1" parent="fnM_mYiMqZ8jmOyI0Xx2-8">
          <mxGeometry x="527" y="190" width="120" height="30" as="geometry" />
        </mxCell>
        <mxCell id="fnM_mYiMqZ8jmOyI0Xx2-19" style="edgeStyle=orthogonalEdgeStyle;rounded=0;orthogonalLoop=1;jettySize=auto;html=1;exitX=1;exitY=0.5;exitDx=0;exitDy=0;entryX=0;entryY=0.5;entryDx=0;entryDy=0;flowAnimation=1;" edge="1" parent="fnM_mYiMqZ8jmOyI0Xx2-8" source="fnM_mYiMqZ8jmOyI0Xx2-13" target="fnM_mYiMqZ8jmOyI0Xx2-14">
          <mxGeometry relative="1" as="geometry" />
        </mxCell>
        <mxCell id="fnM_mYiMqZ8jmOyI0Xx2-13" value="order_data" style="shape=step;perimeter=stepPerimeter;whiteSpace=wrap;html=1;fixedSize=1;fontSize=16;fillColor=#60a917;strokeColor=#2D7600;fontColor=#ffffff;fontStyle=1;" vertex="1" parent="fnM_mYiMqZ8jmOyI0Xx2-8">
          <mxGeometry x="660" y="190" width="130" height="30" as="geometry" />
        </mxCell>
        <mxCell id="fnM_mYiMqZ8jmOyI0Xx2-14" value="load_out_data" style="shape=step;perimeter=stepPerimeter;whiteSpace=wrap;html=1;fixedSize=1;fontSize=16;fillColor=#f0a30a;strokeColor=#BD7000;fontColor=#000000;fontStyle=1;" vertex="1" parent="fnM_mYiMqZ8jmOyI0Xx2-8">
          <mxGeometry x="840" y="190" width="162" height="30" as="geometry" />
        </mxCell>
      </root>
    </mxGraphModel>
  </diagram>
</mxfile>
